<?xml version="1.0" encoding="UTF-8" standalone="no"?>
<!DOCTYPE svg PUBLIC "-//W3C//DTD SVG 1.1//EN" "http://www.w3.org/Graphics/SVG/1.1/DTD/svg11.dtd">
<!-- Created with Vectornator (http://vectornator.io/) -->
<svg height="100%" stroke-miterlimit="10" style="fill-rule:nonzero;clip-rule:evenodd;stroke-linecap:round;stroke-linejoin:round;" version="1.1" viewBox="0 0 760 400" width="100%" xml:space="preserve" xmlns="http://www.w3.org/2000/svg" xmlns:xlink="http://www.w3.org/1999/xlink">
<defs>
<clipPath id="TextBounds">
<rect height="38" transform="matrix(1 -0 -0 1 -15.4022 -223.261)" width="154.954" x="15.4022" y="223.261"/>
</clipPath>
<clipPath id="TextBounds_2">
<rect height="38" transform="matrix(1 -0 -0 1 -53.5405 -24.1633)" width="156.559" x="53.5405" y="24.1633"/>
</clipPath>
<clipPath id="TextBounds_3">
<rect height="38" transform="matrix(1 -0 -0 1 -532.265 -58.0606)" width="218.297" x="532.265" y="58.0606"/>
</clipPath>
<clipPath id="TextBounds_4">
<rect height="38" transform="matrix(1 -0 -0 1 -536.829 -252.165)" width="87.4579" x="536.829" y="252.165"/>
</clipPath>
<clipPath id="TextBounds_5">
<rect height="53.8739" transform="matrix(1 -0 -0 1 -281.788 -337.02)" width="141.172" x="281.788" y="337.02"/>
</clipPath>
</defs>
<g id="Layer-1">
<g opacity="1">
<g opacity="1">
<path d="M271.03 186.302L243.307 186.302C240.065 167.708 223.364 153.485 203.253 153.485C180.829 153.485 162.587 171.149 162.587 192.865C162.587 214.581 180.829 232.245 203.253 232.245C223.364 232.245 240.065 218.023 243.307 199.428L271.03 199.428C285.979 199.428 298.141 211.216 298.141 225.705L298.141 330.696L311.696 330.696L311.696 225.705C311.696 203.979 293.455 186.302 271.03 186.302ZM203.253 219.119C188.305 219.119 176.143 207.341 176.143 192.865C176.143 178.389 188.305 166.611 203.253 166.611C218.202 166.611 230.364 178.389 230.364 192.865C230.364 207.341 218.202 219.119 203.253 219.119Z" fill="#9fc131" fill-rule="nonzero" opacity="1" stroke="none"/>
<path d="M203.253 166.611C188.305 166.611 176.143 178.389 176.143 192.865C176.143 207.341 188.305 219.119 203.253 219.119C218.202 219.119 230.364 207.341 230.364 192.865C230.364 178.389 218.202 166.611 203.253 166.611Z" fill="#005c53" fill-rule="nonzero" opacity="1" stroke="none"/>
</g>
<g opacity="1">
<path d="M318.474 87.8507L291.363 87.8507C291.363 66.135 273.122 48.4703 250.697 48.4703C228.273 48.4703 210.031 66.135 210.031 87.8507C210.031 109.566 228.273 127.231 250.697 127.231C268.363 127.231 283.39 116.248 288.991 100.977L318.474 100.977C333.422 100.977 345.584 112.771 345.584 127.269L345.584 330.696L359.14 330.696L359.14 127.269C359.14 105.535 340.898 87.8507 318.474 87.8507ZM250.697 114.104C235.748 114.104 223.586 102.327 223.586 87.8507C223.586 73.3746 235.748 61.5971 250.697 61.5971C265.646 61.5971 277.808 73.3746 277.808 87.8507C277.808 102.327 265.646 114.104 250.697 114.104Z" fill="#9fc131" fill-rule="nonzero" opacity="1" stroke="none"/>
<path d="M250.697 61.5971C235.748 61.5971 223.586 73.3746 223.586 87.8507C223.586 102.327 235.748 114.104 250.697 114.104C265.646 114.104 277.808 102.327 277.808 87.8507C277.808 73.3746 265.646 61.5971 250.697 61.5971Z" fill="#005c53" fill-rule="nonzero" opacity="1" stroke="none"/>
</g>
<g opacity="1">
<path d="M439.558 140.358L461.417 140.358C464.659 158.952 481.36 173.175 501.471 173.175C523.895 173.175 542.137 155.51 542.137 133.794C542.137 112.079 523.895 94.4141 501.471 94.4141C481.36 94.4141 464.659 108.637 461.417 127.231L439.558 127.231C428.889 127.231 420.208 118.822 420.208 108.483L420.208 9.08992L406.653 9.08992L406.653 108.483C406.653 126.058 421.413 140.358 439.558 140.358ZM501.471 107.541C516.419 107.541 528.581 119.318 528.581 133.794C528.581 148.271 516.419 160.048 501.471 160.048C486.522 160.048 474.36 148.271 474.36 133.794C474.36 119.318 486.522 107.541 501.471 107.541Z" fill="#9fc131" fill-rule="nonzero" opacity="1" stroke="none"/>
<path d="M501.471 160.048C516.419 160.048 528.581 148.271 528.581 133.794C528.581 119.318 516.419 107.541 501.471 107.541C486.522 107.541 474.36 119.318 474.36 133.794C474.36 148.271 486.522 160.048 501.471 160.048Z" fill="#005c53" fill-rule="nonzero" opacity="1" stroke="none"/>
</g>
<g opacity="1">
<path d="M501.471 186.302C481.36 186.302 464.659 200.525 461.417 219.119L433.694 219.119C411.269 219.119 393.028 236.774 393.028 258.477L393.028 330.696L406.583 330.696L406.583 258.477C406.583 244.013 418.745 232.245 433.694 232.245L461.417 232.245C464.659 250.84 481.36 265.062 501.471 265.062C523.895 265.062 542.137 247.398 542.137 225.682C542.137 203.966 523.895 186.302 501.471 186.302ZM501.471 251.936C486.522 251.936 474.36 240.158 474.36 225.682C474.36 211.206 486.522 199.428 501.471 199.428C516.419 199.428 528.581 211.206 528.581 225.682C528.581 240.158 516.419 251.936 501.471 251.936Z" fill="#9fc131" fill-rule="nonzero" opacity="1" stroke="none"/>
<path d="M501.471 199.428C486.522 199.428 474.36 211.206 474.36 225.682C474.36 240.158 486.522 251.936 501.471 251.936C516.419 251.936 528.581 240.158 528.581 225.682C528.581 211.206 516.419 199.428 501.471 199.428Z" fill="#005c53" fill-rule="nonzero" opacity="1" stroke="none"/>
</g>
</g>
<path d="M393.456 199.14C391.721 199.14 389.987 198.499 388.663 197.218C386.016 194.655 386.016 190.499 388.663 187.936L412.626 164.732C415.275 162.168 419.565 162.169 422.211 164.732C424.858 167.295 424.858 171.45 422.211 174.013L398.249 197.218C396.925 198.499 395.19 199.14 393.456 199.14Z" fill="#d6d58e" fill-rule="nonzero" opacity="1" stroke="none"/>
<path d="M417.418 199.137C415.683 199.137 413.949 198.496 412.626 197.214L388.663 174.009C386.016 171.446 386.016 167.29 388.663 164.727C391.312 162.163 395.603 162.164 398.249 164.727L422.211 187.933C424.858 190.496 424.858 194.651 422.211 197.214C420.887 198.496 419.153 199.137 417.418 199.137Z" fill="#d6d58e" fill-rule="nonzero" opacity="1" stroke="none"/>
<path d="M371.96 59.0525C370.225 59.0525 368.49 58.4119 367.167 57.13L347.997 38.5663C345.35 36.0033 345.35 31.8475 347.997 29.2845L367.167 10.7208C369.814 8.15775 374.106 8.15693 376.752 10.7208L395.922 29.2845C397.194 30.5151 397.908 32.1849 397.908 33.9255C397.908 35.6661 397.194 37.3358 395.922 38.5665L376.752 57.1302C375.429 58.4116 373.694 59.0525 371.96 59.0525ZM362.375 33.9253L371.96 43.2071L381.545 33.9253L371.96 24.6435L362.375 33.9253Z" fill="#dbf227" fill-rule="nonzero" opacity="1" stroke="none"/>
<path d="M254.862 320.157C243.052 320.157 233.443 310.549 233.443 298.738C233.443 286.928 243.052 277.32 254.862 277.32C266.672 277.32 276.28 286.928 276.28 298.738C276.28 310.549 266.672 320.157 254.862 320.157ZM254.862 289.559C249.8 289.559 245.683 293.677 245.683 298.738C245.683 303.8 249.8 307.918 254.862 307.918C259.924 307.918 264.041 303.8 264.041 298.738C264.041 293.677 259.924 289.559 254.862 289.559Z" fill="#005c53" fill-rule="nonzero" opacity="1" stroke="none"/>
<text clip-path="url(#TextBounds)" fill="#dbf227" font-family="ArialRoundedMTBold" font-size="32" opacity="1" stroke="none" text-anchor="middle" transform="matrix(1 0 0 1 15.4022 223.261)" x="0" y="0">
<tspan textLength="139.234" x="77.4769" y="30">Frontend</tspan>
</text>
<text clip-path="url(#TextBounds_2)" fill="#dbf227" font-family="ArialRoundedMTBold" font-size="32" opacity="1" stroke="none" text-anchor="middle" transform="matrix(1 0 0 1 53.5405 24.1633)" x="0" y="0">
<tspan textLength="130.062" x="78.2796" y="30">Security</tspan>
</text>
<text clip-path="url(#TextBounds_3)" fill="#dbf227" font-family="ArialRoundedMTBold" font-size="32" opacity="1" stroke="none" text-anchor="middle" transform="matrix(1 0 0 1 532.265 58.0606)" x="0" y="0">
<tspan textLength="198.719" x="109.149" y="30">Photography</tspan>
</text>
<text clip-path="url(#TextBounds_4)" fill="#dbf227" font-family="ArialRoundedMTBold" font-size="32" opacity="1" stroke="none" text-anchor="middle" transform="matrix(1 0 0 1 536.829 252.165)" x="0" y="0">
<tspan textLength="73.375" x="43.729" y="30">????</tspan>
</text>
<text clip-path="url(#TextBounds_5)" fill="#dbf227" font-family="ArialRoundedMTBold" font-size="37.9653" opacity="1" stroke="none" text-anchor="middle" transform="matrix(1 0 0 1 281.788 337.02)" x="0" y="0">
<tspan textLength="100.845" x="70.586" y="36">Topic</tspan>
</text>
</g>
</svg>
